<?xml version="1.0" encoding="UTF-8"?>
<svg id="_레이어_1" data-name="레이어 1" xmlns="http://www.w3.org/2000/svg" viewBox="0 0 113.39 113.39">
  <defs>
    <style>
      .cls-1, .cls-2 {
        fill-rule: evenodd;
      }

      .cls-1, .cls-2, .cls-3 {
        stroke-width: 0px;
      }

      .cls-1, .cls-3 {
        fill: #1c2b72;
      }

      .cls-2 {
        fill: #d72a22;
      }
    </style>
  </defs>
  <g>
    <rect class="cls-3" x="47.57" y="51.72" width="4.88" height="23.56"/>
    <path class="cls-1" d="m56.81,51.72v4.43h4.11v13.29c0,1.8.51,3.34,1.48,4.49.96,1.09,2.31,1.67,3.85,1.73,1.73.06,3.21-.39,4.3-1.09h.06l.06-.06,1.03-4.17.06-.32-.26.13c-1.35.84-2.44,1.22-3.6,1.22-1.48,0-2.25-.83-2.25-2.63v-12.58h4.94v-4.43h-4.94v-7.38l-4.69,2.57h-.06v4.81h-4.11Z"/>
    <rect class="cls-3" x="75.3" y="51.72" width="4.94" height="23.56"/>
    <path class="cls-1" d="m36.4,51.27c-3.47,0-6.36,1.09-8.67,3.21-2.5,2.25-3.72,5.26-3.72,9.05s1.22,6.8,3.72,9.05c2.31,2.12,5.2,3.21,8.67,3.21,3.27,0,6.1-1.35,8.34-4.04l.06-.06-.06-.07-2.57-3.15-.13-.13-.06.13c-1.67,1.8-3.6,2.7-5.78,2.7s-3.85-.71-5.26-2.18c-1.35-1.41-2.05-3.21-2.05-5.46s.71-4.05,2.05-5.46c1.41-1.48,3.14-2.18,5.26-2.18s4.11.9,5.78,2.7l.06.13.13-.13,2.57-3.15.06-.06-.06-.06c-2.25-2.7-5.07-4.04-8.34-4.04h0Z"/>
    <path class="cls-2" d="m50.01,47.8c3.79-3.98,8.41-5.97,13.8-5.97s10.01,1.99,13.74,5.97l.13.06h5.52l-.19-.32c-2.18-3.08-5.01-5.52-8.47-7.32-3.4-1.8-6.93-2.63-10.72-2.63s-7.32.83-10.72,2.63c-3.4,1.8-6.29,4.24-8.47,7.32l-.19.32h5.52l.06-.06Z"/>
  </g>
  <g>
    <path class="cls-3" d="m86.81,47.07c-1.42,0-2.57,1.15-2.57,2.57s1.15,2.57,2.57,2.57,2.57-1.15,2.57-2.57-1.15-2.57-2.57-2.57Zm0,4.7c-1.18,0-2.13-.96-2.13-2.13s.96-2.13,2.13-2.13,2.13.96,2.13,2.13-.96,2.13-2.13,2.13Z"/>
    <path class="cls-3" d="m87.43,49.76c.12-.07.22-.16.29-.29.07-.12.1-.27.1-.43s-.03-.3-.1-.43c-.07-.12-.16-.22-.29-.29-.12-.07-.27-.1-.43-.1h-1.12v2.82h.39v-1.19h.59l.6,1.19h.47l-.65-1.24s.1-.03.14-.05Zm-1.15-1.15h.74c.08,0,.14.02.2.05.06.04.1.09.13.15.03.07.05.14.05.23s-.02.16-.05.23c-.03.07-.08.12-.13.15-.06.04-.12.05-.2.05h-.74v-.88Z"/>
  </g>
</svg>