<?xml version="1.0" encoding="UTF-8"?>
<svg id="_레이어_1" data-name="레이어 1" xmlns="http://www.w3.org/2000/svg" viewBox="0 0 113.39 113.39">
  <defs>
    <style>
      .cls-1 {
        fill: #0092d8;
      }

      .cls-2 {
        fill: #e43d30;
      }

      .cls-2, .cls-3, .cls-4 {
        stroke-width: 0px;
      }

      .cls-3 {
        fill: #fff;
      }

      .cls-4 {
        fill: #004b9d;
      }
    </style>
  </defs>
  <path class="cls-3" d="m48.48,40.58c-.86.46-1.5,1.25-1.81,2.23l-5.79,18.54c-.3.97-.23,2.02.2,2.94.43.92,1.19,1.61,2.09,1.93l18.97,6.79c.92.33,1.9.25,2.77-.21.86-.45,1.51-1.25,1.81-2.23l5.79-18.53c.62-2.02-.4-4.21-2.29-4.88l-18.98-6.79c-.92-.32-1.9-.25-2.76.21Z"/>
  <path class="cls-1" d="m53.53,42.62c3.32,1.31,5.74,5.08,5.5,9.2-.09,1.6-.55,3.06-1.29,4.34-1.03-1.22-2.32-2.21-3.81-2.82l-.84-.35v8.59l.85-.35c1.49-.62,2.78-1.6,3.81-2.84.93,1.59,1.43,3.48,1.31,5.5-.12,2.24-1,4.25-2.34,5.78h.01s-.01,0-.01,0l-13.16-4.69c-1.24-.43-1.93-1.86-1.52-3.18l5.8-18.55c.41-1.32,1.72-2.04,2.96-1.6l2.74.98Z"/>
  <path class="cls-3" d="m50.14,62.1h-1.3v-9.63h1.3v9.63Z"/>
  <path class="cls-2" d="m56.99,57.27c-.73-.92-1.62-1.69-2.65-2.26v4.52c1.02-.57,1.92-1.34,2.65-2.26Z"/>
  <path class="cls-4" d="m69.79,48.4l-12.08-4.31c1.62,1.9,2.61,4.4,2.61,7.16.01,2.18-.63,4.27-1.73,6.02,1.11,1.74,1.75,3.82,1.76,5.99,0,2.61-.87,5-2.33,6.86l4.53,1.61c1.24.44,2.55-.28,2.96-1.61l5.81-18.54c.4-1.32-.29-2.76-1.52-3.19Zm-3.21,13.67h-1.62s-3.35-4.81-3.35-4.81l3.4-4.81h1.65s-3.42,4.82-3.42,4.82l3.35,4.8Z"/>
</svg>