<?xml version="1.0" encoding="UTF-8"?>
<svg id="_레이어_1" data-name="레이어 1" xmlns="http://www.w3.org/2000/svg" xmlns:xlink="http://www.w3.org/1999/xlink" viewBox="0 0 113.39 113.39">
  <defs>
    <style>
      .cls-1 {
        fill: none;
      }

      .cls-1, .cls-2, .cls-3, .cls-4, .cls-5, .cls-6, .cls-7, .cls-8, .cls-9, .cls-10, .cls-11, .cls-12, .cls-13, .cls-14, .cls-15, .cls-16, .cls-17, .cls-18, .cls-19, .cls-20, .cls-21, .cls-22, .cls-23, .cls-24, .cls-25, .cls-26, .cls-27, .cls-28, .cls-29, .cls-30, .cls-31, .cls-32, .cls-33, .cls-34, .cls-35, .cls-36, .cls-37, .cls-38, .cls-39, .cls-40, .cls-41, .cls-42, .cls-43, .cls-44, .cls-45, .cls-46, .cls-47, .cls-48, .cls-49, .cls-50, .cls-51, .cls-52, .cls-53, .cls-54, .cls-55, .cls-56, .cls-57, .cls-58, .cls-59, .cls-60, .cls-61, .cls-62, .cls-63, .cls-64 {
        stroke-width: 0px;
      }

      .cls-65, .cls-62 {
        fill: #007bc7;
      }

      .cls-66 {
        clip-path: url(#clippath-1);
      }

      .cls-2 {
        fill: #f7fbfe;
      }

      .cls-3 {
        fill: #f2f9fd;
      }

      .cls-4 {
        fill: #75c1e6;
      }

      .cls-5 {
        fill: #5cb9e3;
      }

      .cls-6 {
        fill: #53b7e2;
      }

      .cls-7 {
        fill: #49b5e1;
      }

      .cls-8 {
        fill: #29acde;
      }

      .cls-9 {
        fill: #6dbee5;
      }

      .cls-10 {
        fill: #37b0df;
      }

      .cls-11 {
        fill: #3cb2e0;
      }

      .cls-12 {
        fill: #20aadd;
      }

      .cls-13 {
        fill: #14a8dc;
      }

      .cls-14 {
        fill: #d0e8f6;
      }

      .cls-15 {
        fill: #dfeff9;
      }

      .cls-16 {
        fill: #cae5f5;
      }

      .cls-17 {
        fill: #daedf8;
      }

      .cls-18 {
        fill: #c5e3f4;
      }

      .cls-19 {
        fill: #d5eaf7;
      }

      .cls-20 {
        fill: #c0e0f3;
      }

      .cls-21 {
        fill: #bbdef2;
      }

      .cls-22 {
        fill: #a4d3ee;
      }

      .cls-23 {
        fill: #afd8f0;
      }

      .cls-24 {
        fill: #aad6ef;
      }

      .cls-25 {
        fill: #b5dbf1;
      }

      .cls-26 {
        fill: #30aede;
      }

      .cls-27 {
        fill: #65bce4;
      }

      .cls-28 {
        fill: #97ceec;
      }

      .cls-29 {
        fill: #00a0d9;
      }

      .cls-30 {
        fill: #009ed8;
      }

      .cls-31 {
        fill: #00a4da;
      }

      .cls-32 {
        fill: #00a2da;
      }

      .cls-33 {
        fill: #009cd7;
      }

      .cls-34 {
        fill: #009ad7;
      }

      .cls-35 {
        fill: #0099d6;
      }

      .cls-36 {
        fill: #8ac9e9;
      }

      .cls-37 {
        fill: #91cbea;
      }

      .cls-38 {
        fill: #9ed1ed;
      }

      .cls-39 {
        fill: #83c6e8;
      }

      .cls-40 {
        fill: #7cc3e7;
      }

      .cls-41 {
        fill: #fff;
      }

      .cls-42 {
        fill: #e4f2fa;
      }

      .cls-43 {
        fill: #edf6fc;
      }

      .cls-44 {
        fill: #fbfdfe;
      }

      .cls-45 {
        fill: #e9f4fb;
      }

      .cls-46 {
        fill: #01a6db;
      }

      .cls-47 {
        fill: #0081cb;
      }

      .cls-48 {
        fill: #008ed1;
      }

      .cls-49 {
        fill: #0084cc;
      }

      .cls-50 {
        fill: #008bcf;
      }

      .cls-51 {
        fill: #0082cb;
      }

      .cls-52 {
        fill: #008cd0;
      }

      .cls-53 {
        fill: #0097d5;
      }

      .cls-54 {
        fill: #0089cf;
      }

      .cls-55 {
        fill: #0090d2;
      }

      .cls-56 {
        fill: #0091d3;
      }

      .cls-57 {
        fill: #0086cd;
      }

      .cls-58 {
        fill: #0093d3;
      }

      .cls-59 {
        fill: #0095d4;
      }

      .cls-60 {
        fill: #0087ce;
      }

      .cls-61 {
        fill: #007fca;
      }

      .cls-63 {
        fill: #007ec9;
      }

      .cls-64 {
        fill: #007cc8;
      }
    </style>
    <clipPath id="clippath-1">
      <path class="cls-1" d="m56.7,72.72c8.85,0,16.03-7.17,16.03-16.03s-7.18-16.03-16.03-16.03-16.03,7.18-16.03,16.03,7.17,16.03,16.03,16.03Z"/>
    </clipPath>
  </defs>
  <path class="cls-41" d="m73.52,56.69c0,9.3-7.54,16.83-16.83,16.83s-16.83-7.53-16.83-16.83,7.53-16.83,16.83-16.83,16.83,7.53,16.83,16.83Z"/>
  <path class="cls-65" d="m56.7,72.72c8.85,0,16.03-7.17,16.03-16.03s-7.18-16.03-16.03-16.03-16.03,7.18-16.03,16.03,7.17,16.03,16.03,16.03Z"/>
  <g class="cls-66">
    <g>
      <path class="cls-62" d="m56.76,64.43c7.04,0,13.08,1.96,15.67,4.75.87-1.99,1.34-4.18,1.34-6.49,0-9.2-7.62-16.65-17.01-16.65-9.39,0-17.01,7.45-17.01,16.65,0,2.31.48,4.5,1.35,6.49,2.58-2.79,8.62-4.75,15.66-4.75Z"/>
      <path class="cls-64" d="m56.75,64.45c7.02,0,13.04,1.95,15.63,4.71.87-1.97,1.34-4.15,1.34-6.44,0-9.12-7.6-16.54-16.97-16.53-9.37,0-16.97,7.42-16.97,16.54,0,2.29.48,4.46,1.34,6.44,2.57-2.76,8.6-4.71,15.62-4.71Z"/>
      <path class="cls-63" d="m56.75,64.46c7,0,13.01,1.93,15.59,4.67.86-1.96,1.34-4.12,1.34-6.38,0-9.05-7.58-16.43-16.93-16.42-9.34,0-16.92,7.38-16.92,16.43,0,2.27.48,4.42,1.34,6.38,2.57-2.74,8.58-4.67,15.58-4.67Z"/>
      <path class="cls-61" d="m56.75,64.48c6.99,0,12.98,1.92,15.55,4.64.86-1.94,1.33-4.08,1.33-6.33,0-8.97-7.56-16.31-16.88-16.31-9.32,0-16.88,7.34-16.88,16.31,0,2.25.48,4.39,1.34,6.33,2.56-2.72,8.56-4.64,15.54-4.64Z"/>
      <path class="cls-47" d="m56.75,64.5c6.97,0,12.94,1.9,15.51,4.6.86-1.93,1.33-4.05,1.33-6.28,0-8.9-7.54-16.2-16.84-16.2-9.29,0-16.84,7.3-16.84,16.2,0,2.23.47,4.35,1.33,6.28,2.55-2.7,8.53-4.6,15.5-4.6Z"/>
      <path class="cls-51" d="m56.75,64.52c6.95,0,12.91,1.88,15.47,4.56.86-1.91,1.33-4.01,1.33-6.23,0-8.83-7.52-16.09-16.79-16.09-9.27,0-16.79,7.27-16.79,16.09,0,2.21.47,4.32,1.33,6.23,2.55-2.67,8.51-4.56,15.46-4.56Z"/>
      <path class="cls-49" d="m56.74,64.54c6.93,0,12.88,1.87,15.43,4.52.86-1.89,1.32-3.98,1.32-6.18,0-8.75-7.5-15.98-16.75-15.98-9.25,0-16.75,7.23-16.75,15.98,0,2.2.47,4.28,1.33,6.17,2.54-2.65,8.49-4.52,15.42-4.52Z"/>
      <path class="cls-57" d="m56.74,64.55c6.91,0,12.84,1.85,15.39,4.48.85-1.88,1.32-3.95,1.32-6.12,0-8.68-7.48-15.87-16.71-15.87-9.22,0-16.7,7.19-16.7,15.87,0,2.18.47,4.24,1.32,6.12,2.53-2.63,8.47-4.48,15.38-4.48Z"/>
      <path class="cls-60" d="m56.74,64.57c6.9,0,12.81,1.84,15.35,4.44.85-1.86,1.32-3.91,1.32-6.07,0-8.61-7.46-15.76-16.66-15.76-9.2,0-16.66,7.16-16.66,15.76,0,2.16.47,4.21,1.32,6.07,2.53-2.61,8.45-4.44,15.34-4.44Z"/>
      <path class="cls-54" d="m56.74,64.59c6.88,0,12.78,1.82,15.31,4.41.85-1.85,1.31-3.88,1.31-6.02,0-8.53-7.44-15.65-16.62-15.65-9.17,0-16.62,7.12-16.62,15.65,0,2.14.47,4.17,1.31,6.02,2.52-2.59,8.42-4.41,15.3-4.41Z"/>
      <path class="cls-50" d="m56.74,64.61c6.86,0,12.74,1.8,15.26,4.37.85-1.83,1.31-3.85,1.31-5.97,0-8.46-7.42-15.54-16.58-15.54-9.15,0-16.57,7.08-16.57,15.54,0,2.12.47,4.14,1.31,5.97,2.51-2.56,8.4-4.37,15.26-4.37Z"/>
      <path class="cls-52" d="m56.73,64.62c6.84,0,12.71,1.79,15.22,4.33.85-1.81,1.31-3.81,1.31-5.91,0-8.38-7.41-15.43-16.53-15.43-9.12,0-16.53,7.05-16.53,15.43,0,2.1.47,4.1,1.31,5.91,2.51-2.54,8.38-4.33,15.22-4.33Z"/>
      <path class="cls-48" d="m56.73,64.64c6.82,0,12.68,1.77,15.18,4.29.84-1.8,1.3-3.78,1.3-5.86,0-8.31-7.39-15.32-16.49-15.32-9.1,0-16.49,7.01-16.49,15.32,0,2.08.46,4.06,1.3,5.86,2.5-2.52,8.36-4.29,15.18-4.29Z"/>
      <path class="cls-55" d="m56.73,64.66c6.8,0,12.64,1.76,15.14,4.25.84-1.78,1.3-3.75,1.3-5.81,0-8.24-7.37-15.21-16.44-15.21-9.08,0-16.44,6.97-16.44,15.21,0,2.07.46,4.03,1.3,5.81,2.49-2.5,8.34-4.25,15.14-4.25Z"/>
      <path class="cls-56" d="m56.73,64.68c6.79,0,12.61,1.74,15.1,4.21.84-1.77,1.3-3.71,1.3-5.76,0-8.16-7.35-15.1-16.4-15.1-9.05,0-16.4,6.93-16.4,15.1,0,2.05.46,3.99,1.3,5.76,2.49-2.47,8.32-4.21,15.1-4.21Z"/>
      <path class="cls-58" d="m56.72,64.7c6.77,0,12.58,1.72,15.06,4.18.84-1.75,1.29-3.68,1.29-5.71,0-8.09-7.33-14.99-16.36-14.99-9.03,0-16.36,6.9-16.36,14.99,0,2.03.46,3.96,1.29,5.7,2.48-2.45,8.29-4.18,15.06-4.18Z"/>
      <path class="cls-59" d="m56.72,64.71c6.75,0,12.54,1.71,15.02,4.14.83-1.73,1.29-3.64,1.29-5.65,0-8.02-7.31-14.88-16.31-14.88-9,0-16.31,6.86-16.31,14.88,0,2.01.46,3.92,1.29,5.65,2.47-2.43,8.27-4.14,15.02-4.14Z"/>
      <path class="cls-53" d="m56.72,64.73c6.73,0,12.51,1.69,14.98,4.1.83-1.72,1.29-3.61,1.29-5.6,0-7.94-7.29-14.77-16.27-14.76-8.98,0-16.27,6.82-16.27,14.77,0,1.99.46,3.88,1.29,5.6,2.47-2.41,8.25-4.1,14.98-4.1Z"/>
      <path class="cls-35" d="m56.72,64.75c6.71,0,12.48,1.68,14.94,4.06.83-1.7,1.28-3.58,1.28-5.55,0-7.87-7.27-14.65-16.23-14.65-8.96,0-16.22,6.79-16.22,14.65,0,1.97.46,3.85,1.28,5.55,2.46-2.38,8.23-4.06,14.94-4.06Z"/>
      <path class="cls-34" d="m56.72,64.77c6.69,0,12.44,1.66,14.9,4.02.83-1.68,1.28-3.54,1.28-5.5,0-7.79-7.25-14.54-16.18-14.54-8.93,0-16.18,6.75-16.18,14.54,0,1.95.46,3.81,1.28,5.5,2.45-2.36,8.21-4.02,14.9-4.02Z"/>
      <path class="cls-33" d="m56.71,64.78c6.68,0,12.41,1.64,14.86,3.98.83-1.67,1.28-3.51,1.28-5.44,0-7.72-7.23-14.43-16.14-14.43-8.91,0-16.14,6.71-16.14,14.43,0,1.93.45,3.78,1.27,5.44,2.45-2.34,8.18-3.98,14.86-3.98Z"/>
      <path class="cls-30" d="m56.71,64.8c6.66,0,12.38,1.63,14.82,3.94.82-1.65,1.27-3.48,1.27-5.39,0-7.65-7.21-14.32-16.09-14.32-8.88,0-16.09,6.68-16.09,14.32,0,1.92.45,3.74,1.27,5.39,2.44-2.32,8.16-3.94,14.82-3.94Z"/>
      <path class="cls-29" d="m56.71,64.82c6.64,0,12.34,1.61,14.78,3.91.82-1.64,1.27-3.44,1.27-5.34,0-7.57-7.19-14.21-16.05-14.21-8.86,0-16.05,6.64-16.05,14.21,0,1.9.45,3.7,1.27,5.34,2.43-2.29,8.14-3.91,14.78-3.91Z"/>
      <path class="cls-32" d="m56.71,64.84c6.62,0,12.31,1.6,14.74,3.87.82-1.62,1.27-3.41,1.27-5.29,0-7.5-7.17-14.1-16.01-14.1-8.84,0-16.01,6.6-16.01,14.1,0,1.88.45,3.67,1.26,5.29,2.43-2.27,8.12-3.87,14.74-3.87Z"/>
      <path class="cls-31" d="m56.71,64.86c6.6,0,12.28,1.58,14.7,3.83.82-1.6,1.26-3.37,1.26-5.23,0-7.43-7.15-13.99-15.96-13.99-8.81,0-15.96,6.56-15.96,13.99,0,1.86.45,3.63,1.26,5.23,2.42-2.25,8.1-3.83,14.7-3.83Z"/>
      <path class="cls-46" d="m56.7,64.87c6.58,0,12.24,1.56,14.66,3.79.82-1.59,1.26-3.34,1.26-5.18,0-7.35-7.13-13.88-15.92-13.88-8.79,0-15.92,6.53-15.92,13.88,0,1.84.45,3.6,1.26,5.18,2.41-2.23,8.07-3.79,14.66-3.79Z"/>
      <path class="cls-13" d="m56.7,64.89c6.57,0,12.21,1.55,14.62,3.75.81-1.57,1.26-3.31,1.26-5.13,0-7.28-7.11-13.77-15.88-13.77-8.76,0-15.88,6.49-15.88,13.77,0,1.82.45,3.56,1.25,5.13,2.41-2.21,8.05-3.75,14.62-3.75Z"/>
      <path class="cls-12" d="m56.7,64.91c6.55,0,12.18,1.53,14.58,3.71.81-1.56,1.25-3.27,1.25-5.08,0-7.2-7.09-13.66-15.83-13.66-8.74,0-15.83,6.45-15.83,13.66,0,1.8.45,3.52,1.25,5.08,2.4-2.18,8.03-3.71,14.58-3.71Z"/>
      <path class="cls-8" d="m56.7,64.93c6.53,0,12.14,1.52,14.54,3.68.81-1.54,1.25-3.24,1.25-5.03,0-7.13-7.07-13.55-15.79-13.55-8.72,0-15.79,6.42-15.79,13.55,0,1.78.44,3.49,1.25,5.03,2.39-2.16,8.01-3.68,14.54-3.68Z"/>
      <path class="cls-26" d="m56.7,64.94c6.51,0,12.11,1.5,14.5,3.64.81-1.52,1.25-3.21,1.25-4.97,0-7.06-7.05-13.44-15.74-13.44-8.69,0-15.74,6.38-15.74,13.44,0,1.77.44,3.45,1.24,4.97,2.39-2.14,7.99-3.64,14.5-3.64Z"/>
      <path class="cls-10" d="m56.69,64.96c6.49,0,12.08,1.48,14.46,3.6.8-1.51,1.24-3.17,1.24-4.92,0-6.98-7.03-13.33-15.7-13.33-8.67,0-15.7,6.34-15.7,13.33,0,1.75.44,3.42,1.24,4.92,2.38-2.12,7.97-3.6,14.46-3.6Z"/>
      <path class="cls-11" d="m56.69,64.98c6.48,0,12.04,1.47,14.42,3.56.8-1.49,1.24-3.14,1.24-4.87,0-6.91-7.01-13.22-15.66-13.22s-15.66,6.31-15.66,13.22c0,1.73.44,3.38,1.23,4.87,2.37-2.09,7.94-3.56,14.42-3.56Z"/>
      <path class="cls-7" d="m56.69,65.02c6.47,0,12.03,1.46,14.4,3.54.8-1.48,1.24-3.12,1.24-4.84,0-6.87-7-13.13-15.64-13.13s-15.64,6.27-15.64,13.13c0,1.72.44,3.36,1.23,4.84,2.37-2.08,7.93-3.54,14.4-3.54Z"/>
      <path class="cls-6" d="m56.69,65.06c6.46,0,12.01,1.45,14.38,3.51.8-1.47,1.24-3.1,1.24-4.81,0-6.82-6.99-13.05-15.61-13.05s-15.62,6.23-15.62,13.05c0,1.71.44,3.34,1.23,4.81,2.37-2.07,7.92-3.51,14.38-3.51Z"/>
      <path class="cls-5" d="m56.69,65.1c6.45,0,11.99,1.44,14.36,3.49.8-1.46,1.24-3.08,1.24-4.77,0-6.78-6.98-12.97-15.59-12.97s-15.59,6.2-15.59,12.97c0,1.7.44,3.31,1.23,4.77,2.36-2.05,7.91-3.49,14.37-3.49Z"/>
      <path class="cls-27" d="m56.69,65.14c6.44,0,11.98,1.43,14.34,3.47.8-1.45,1.23-3.06,1.23-4.74,0-6.73-6.97-12.89-15.57-12.89s-15.57,6.16-15.57,12.89c0,1.68.44,3.29,1.23,4.74,2.36-2.04,7.9-3.47,14.35-3.47Z"/>
      <path class="cls-9" d="m56.69,65.18c6.43,0,11.96,1.42,14.32,3.45.8-1.44,1.23-3.04,1.23-4.71,0-6.69-6.96-12.81-15.55-12.81s-15.55,6.12-15.55,12.81c0,1.67.44,3.27,1.23,4.71,2.36-2.03,7.89-3.45,14.33-3.45Z"/>
      <path class="cls-4" d="m56.69,65.22c6.42,0,11.94,1.41,14.3,3.42.79-1.43,1.23-3.01,1.23-4.68,0-6.64-6.95-12.73-15.53-12.73s-15.53,6.09-15.53,12.73c0,1.66.44,3.25,1.22,4.68,2.36-2.01,7.88-3.42,14.31-3.42Z"/>
      <path class="cls-40" d="m56.69,65.27c6.41,0,11.93,1.4,14.28,3.4.79-1.42,1.23-2.99,1.23-4.65,0-6.6-6.94-12.65-15.51-12.65s-15.51,6.05-15.51,12.65c0,1.65.43,3.22,1.22,4.65,2.35-2,7.87-3.4,14.29-3.4Z"/>
      <path class="cls-39" d="m56.69,65.31c6.41,0,11.91,1.39,14.26,3.38.79-1.41,1.23-2.97,1.23-4.61,0-6.55-6.94-12.57-15.49-12.57s-15.49,6.02-15.49,12.57c0,1.64.43,3.2,1.22,4.62,2.35-1.98,7.86-3.38,14.27-3.38Z"/>
      <path class="cls-36" d="m56.69,65.35c6.4,0,11.9,1.38,14.24,3.35.79-1.4,1.23-2.95,1.23-4.58,0-6.51-6.93-12.49-15.47-12.49s-15.47,5.98-15.47,12.49c0,1.63.43,3.18,1.22,4.58,2.35-1.97,7.85-3.35,14.25-3.35Z"/>
      <path class="cls-37" d="m56.69,65.39c6.39,0,11.88,1.37,14.22,3.33.79-1.39,1.22-2.93,1.22-4.55,0-6.46-6.92-12.4-15.44-12.4s-15.45,5.94-15.45,12.4c0,1.62.43,3.16,1.22,4.55,2.34-1.96,7.84-3.33,14.23-3.33Z"/>
      <path class="cls-28" d="m56.69,65.43c6.38,0,11.86,1.36,14.2,3.31.79-1.38,1.22-2.91,1.22-4.52,0-6.42-6.91-12.32-15.42-12.32s-15.43,5.91-15.43,12.32c0,1.61.43,3.14,1.21,4.52,2.34-1.94,7.83-3.31,14.21-3.31Z"/>
      <path class="cls-38" d="m56.69,65.47c6.37,0,11.85,1.35,14.18,3.28.79-1.38,1.22-2.89,1.22-4.49,0-6.37-6.9-12.24-15.4-12.24s-15.4,5.87-15.4,12.24c0,1.6.43,3.11,1.21,4.49,2.34-1.93,7.82-3.28,14.19-3.28Z"/>
      <path class="cls-22" d="m56.69,65.51c6.36,0,11.83,1.34,14.16,3.26.78-1.37,1.22-2.87,1.22-4.46,0-6.33-6.89-12.16-15.38-12.16s-15.38,5.84-15.38,12.16c0,1.59.43,3.09,1.21,4.46,2.33-1.92,7.81-3.26,14.17-3.26Z"/>
      <path class="cls-24" d="m56.69,65.55c6.35,0,11.81,1.33,14.14,3.24.78-1.36,1.22-2.85,1.22-4.42,0-6.28-6.88-12.08-15.36-12.08s-15.36,5.8-15.36,12.08c0,1.58.43,3.07,1.21,4.43,2.33-1.9,7.8-3.24,14.15-3.24Z"/>
      <path class="cls-23" d="m56.69,65.59c6.35,0,11.8,1.33,14.12,3.21.78-1.35,1.22-2.83,1.22-4.39,0-6.24-6.87-12-15.34-12s-15.34,5.76-15.34,12c0,1.56.43,3.05,1.21,4.39,2.33-1.89,7.79-3.21,14.13-3.21Z"/>
      <path class="cls-25" d="m56.69,65.63c6.34,0,11.78,1.32,14.1,3.19.78-1.34,1.21-2.81,1.21-4.36,0-6.19-6.86-11.92-15.32-11.92s-15.32,5.73-15.32,11.92c0,1.55.43,3.03,1.2,4.36,2.32-1.88,7.78-3.19,14.12-3.19Z"/>
      <path class="cls-21" d="m56.69,65.67c6.33,0,11.77,1.31,14.08,3.17.78-1.33,1.21-2.79,1.21-4.33,0-6.15-6.85-11.84-15.29-11.84s-15.3,5.69-15.3,11.84c0,1.54.43,3,1.2,4.33,2.32-1.86,7.77-3.17,14.1-3.17Z"/>
      <path class="cls-20" d="m56.69,65.71c6.32,0,11.75,1.3,14.06,3.14.78-1.32,1.21-2.77,1.21-4.3,0-6.1-6.84-11.76-15.27-11.76s-15.28,5.65-15.28,11.76c0,1.53.43,2.98,1.2,4.3,2.32-1.85,7.75-3.14,14.08-3.15Z"/>
      <path class="cls-18" d="m56.69,65.75c6.31,0,11.73,1.29,14.04,3.12.78-1.31,1.21-2.75,1.21-4.27,0-6.06-6.83-11.67-15.25-11.67s-15.26,5.62-15.26,11.67c0,1.52.43,2.96,1.2,4.27,2.32-1.84,7.74-3.12,14.06-3.12Z"/>
      <path class="cls-16" d="m56.69,65.8c6.3,0,11.72,1.28,14.02,3.1.77-1.3,1.21-2.73,1.21-4.23,0-6.01-6.82-11.59-15.23-11.59s-15.24,5.58-15.24,11.59c0,1.51.43,2.94,1.2,4.24,2.31-1.82,7.73-3.1,14.04-3.1Z"/>
      <path class="cls-14" d="m56.69,65.84c6.29,0,11.7,1.27,14,3.07.77-1.29,1.21-2.71,1.21-4.2,0-5.97-6.81-11.51-15.21-11.51s-15.21,5.55-15.21,11.51c0,1.5.42,2.92,1.2,4.2,2.31-1.81,7.72-3.07,14.02-3.08Z"/>
      <path class="cls-19" d="m56.69,65.88c6.28,0,11.68,1.26,13.98,3.05.77-1.28,1.2-2.69,1.2-4.17,0-5.92-6.8-11.43-15.19-11.43s-15.19,5.51-15.19,11.43c0,1.49.42,2.89,1.19,4.17,2.31-1.79,7.71-3.05,14-3.05Z"/>
      <path class="cls-17" d="m56.69,65.92c6.28,0,11.67,1.25,13.96,3.03.77-1.27,1.2-2.66,1.2-4.14,0-5.88-6.8-11.35-15.17-11.35s-15.17,5.47-15.17,11.35c0,1.48.42,2.87,1.19,4.14,2.3-1.78,7.7-3.03,13.98-3.03Z"/>
      <path class="cls-15" d="m56.69,65.96c6.27,0,11.65,1.24,13.95,3.01.77-1.26,1.2-2.64,1.2-4.11,0-5.83-6.79-11.27-15.15-11.27s-15.15,5.44-15.15,11.27c0,1.47.42,2.85,1.19,4.11,2.3-1.77,7.69-3.01,13.96-3.01Z"/>
      <path class="cls-42" d="m56.69,66c6.26,0,11.64,1.23,13.93,2.98.77-1.25,1.2-2.62,1.2-4.08,0-5.79-6.78-11.19-15.12-11.19s-15.13,5.4-15.13,11.19c0,1.45.42,2.83,1.19,4.08,2.3-1.75,7.68-2.98,13.94-2.98Z"/>
      <path class="cls-45" d="m56.69,66.04c6.25,0,11.62,1.22,13.91,2.96.77-1.24,1.2-2.6,1.2-4.04,0-5.74-6.77-11.11-15.1-11.11s-15.11,5.37-15.11,11.11c0,1.44.42,2.8,1.19,4.05,2.29-1.74,7.67-2.96,13.92-2.96Z"/>
      <path class="cls-43" d="m56.69,66.08c6.24,0,11.6,1.21,13.89,2.94.76-1.23,1.2-2.58,1.2-4.01,0-5.7-6.76-11.03-15.08-11.03s-15.09,5.33-15.09,11.03c0,1.43.42,2.78,1.18,4.01,2.29-1.73,7.66-2.94,13.9-2.94Z"/>
      <path class="cls-3" d="m56.69,66.12c6.23,0,11.59,1.2,13.87,2.91.76-1.22,1.19-2.56,1.19-3.98,0-5.65-6.75-10.94-15.06-10.94s-15.07,5.29-15.07,10.94c0,1.42.42,2.76,1.18,3.98,2.29-1.71,7.65-2.91,13.88-2.91Z"/>
      <path class="cls-2" d="m56.69,66.16c6.22,0,11.57,1.19,13.85,2.89.76-1.21,1.19-2.54,1.19-3.95,0-5.61-6.74-10.86-15.04-10.86s-15.05,5.26-15.05,10.86c0,1.41.42,2.74,1.18,3.95,2.29-1.7,7.64-2.89,13.87-2.89Z"/>
      <path class="cls-44" d="m56.69,66.2c6.22,0,11.55,1.18,13.83,2.87.76-1.2,1.19-2.52,1.19-3.92,0-5.56-6.73-10.78-15.02-10.78s-15.02,5.22-15.02,10.78c0,1.4.42,2.72,1.18,3.92,2.28-1.69,7.63-2.87,13.85-2.87Z"/>
      <path class="cls-41" d="m56.69,66.24c6.21,0,11.54,1.17,13.81,2.84.76-1.19,1.19-2.5,1.19-3.88,0-5.52-6.72-10.7-15-10.7s-15,5.19-15,10.7c0,1.39.42,2.69,1.18,3.89,2.28-1.67,7.62-2.84,13.83-2.85Z"/>
    </g>
  </g>
  <path class="cls-62" d="m56.69,60.74c-5.43,0-10.48.92-14.64,2.48,2.49,5.6,8.11,9.5,14.65,9.5s12.13-3.9,14.64-9.5c-4.16-1.56-9.21-2.48-14.64-2.48Z"/>
</svg>