<?xml version="1.0" encoding="UTF-8"?>
<svg id="_레이어_1" data-name="레이어 1" xmlns="http://www.w3.org/2000/svg" viewBox="0 0 113.39 113.39">
  <defs>
    <style>
      .cls-1 {
        fill: #f8b500;
        stroke-width: 0px;
      }
    </style>
  </defs>
  <path class="cls-1" d="m81.62,57.18s-.45-.28-.45-.28c-1.52-1.52-3.64-2.18-6.46-2.01-2.35.15-4.22,1.08-5.65,1.95,0-.02,0-.04,0-.07,0-.74.08-1.54.17-2.31.08-.79.17-1.59.17-2.35s-.09-1.51-.35-2.14c-.07-.16-.22-.26-.4-.26-.76.02-2.25.54-2.61.85,0,0-.19.43-.19.43-.01.84-.2,3.19-.38,3.48,0-.01-.1.28-.1.28-.32,3.36-.33,6.31-.03,8.85.03.25.52.64.9.77.41.15,1.71-.19,2.45-.48,0,0,.28-.04.28-.04.24-.03.38-.22.36-.49,0,0,.02-.73.02-.73.54-2.19,2.72-4.8,5.3-5.2,1.46-.23,2.61.14,3.52,1.14.12.18.39,1.75-.57,3.56-.71,1.34-2.15,2.47-4.03,3.18-1.78.68-3.74.95-6.16.87-.1-.07-2.27-1.53-2.27-1.53-1.92-1.35-4.3-3.02-6.47-3.84-.38-.15-1.06-.71-1.47-1.05l-.22-.18c-1.25-1-3.62-2.58-5.53-3.85,0,0-.86-.58-1.03-.69,0-.07,0-.22,0-.22.05-.06,1.25-.78,1.25-.78,1.68-.98,2.45-1.46,2.62-1.71-.03.04.22-.13.22-.13.01,0,4.16-2.35,4.16-2.35,3.99-2.2,8.51-4.68,10.88-7.14,0,0,.11-.37.11-.37l.05-.34c.16-.52.17-.93.04-1.4-.04-.13-.16-.29-.32-.32-1.85-.18-4.24.93-6.42,2.97-.49.46-.9.69-1.34.92l-.33.19c-2.4,1.36-7.81,4.72-10.63,6.53.19-3.04.75-7.37,1.44-10.98l-.08-.43s-.29-.54-.29-.54l-.22-.39-.07-.02c-.56-.29-1.02-.17-1.36-.08,0,0-.57.21-.57.21l-.75.27c-.15.03-.26.12-.31.26-1.35,3.27-2.48,8.64-2.74,12.93-2.7-1.72-5.2-2.95-6.42-3.55l-.04-.02-.15-.03c-.44-.06-.98-.38-1.49-.69-.05-.03-1.02-.67-1.02-.67l-1.57-1s-.41-.09-.41-.09c-.67.12-1.97.99-2.35,1.58-.05.08-.07.17-.07.25,0,.12.04.25.07.37l.07.32.07.19c.75.77,2.65,2.06,4.51,3.06l2.16,1.14,3.3,1.8s.57.45.57.45c0,0,.39.23.39.23,0,0,.04.03.07.04-.88.59-6,4.01-6,4.01l-3.16,2.09c-.3.2-1.55.76-1.82.87-.69.28-1.2.71-1.42,1.17l-.08.18.08.12.24.18s.33.21.33.21l.35.24s.33.05.33.05c.56.02,1.38-.29,2.92-.97,1.41-.63,5.25-2.94,6.88-3.93l.7-.42c.29.02.61-.22.89-.44.33-.26,1.05-.7,1.48-.89.01,0,.26-.14.49-.27,0,.07,0,.19,0,.19.08,5.02.36,8.66.91,11.47v.05s.06.11.06.11c.27.4.58,1.59.85,2.63l.62,2.09s.18.19.18.19c.36.24,1.44.66,2.17.57l.18-.02.11-.26c.06-.31.08-.62.08-.96,0-.39-.03-.81-.06-1.32l-.05-.76c-.23-3.5-.46-8.56-.46-11.92,0-.09,0-.18,0-.27.59.37,3.2,2.01,3.2,2.01,4.43,2.87,11.12,7.21,15.16,8.36.21.06.43.01.59-.13,0,0,.62-.4.62-.4l.11-.05c.23-.11.39-.5.42-.92,3.41-.17,8.16-1.48,10.7-4.68.98-1.24,1.43-2.76,1.43-4.06,0-1.07-.3-1.98-.83-2.49Z"/>
</svg>