<?xml version="1.0" encoding="UTF-8"?>
<svg id="_레이어_1" data-name="레이어 1" xmlns="http://www.w3.org/2000/svg" viewBox="0 0 113.39 113.39">
  <defs>
    <style>
      .cls-1 {
        fill: #005bac;
        stroke-width: 0px;
      }
    </style>
  </defs>
  <path class="cls-1" d="m94.36,40.36h-5.22v13.03h-21.35v-13.03h-5.22c-1.23,0-2.24,1.15-2.24,2.57v27.54c0,1.41,1,2.57,2.24,2.57h5.22v-13.99h21.35v13.99h5.22c1.24,0,2.24-1.16,2.24-2.57v-27.54c0-1.42-1-2.57-2.24-2.57Z"/>
  <path class="cls-1" d="m51.61,40.36h-5.22v25.02l-15.7-19.99c-2.61-2.92-4.4-5.03-8.58-5.03h-5.32v30.1c0,1.41,1,2.57,2.25,2.57h5.22v-25.13l15.8,19.85c2.67,2.99,5.05,5.29,8.92,5.29h4.88v-30.11c0-1.42-1-2.57-2.24-2.57Z"/>
</svg>