<svg width="170" height="146" viewBox="0 0 170 146" fill="none" xmlns="http://www.w3.org/2000/svg">
<g clip-path="url(#clip0_122_1973)">
<path d="M84.0285 146C118.633 146 146.686 141.642 146.686 136.267C146.686 130.891 118.633 126.533 84.0285 126.533C49.4239 126.533 21.3713 130.891 21.3713 136.267C21.3713 141.642 49.4239 146 84.0285 146Z" fill="#444444"/>
<g filter="url(#filter0_i_122_1973)">
<path d="M115.366 62.6428L139.136 91.5617C143.654 97.0701 157.79 97.2796 163.175 92.6544L164.91 91.1576C170.295 86.5323 170.998 78.3296 166.481 72.8362L134.903 41.8517C130.385 36.3433 125.194 38.1994 119.794 42.8097L116.937 44.3065C111.552 48.9317 110.849 57.1344 115.366 62.6278V62.6428Z" fill="white"/>
<path d="M54.6334 62.6428L30.8638 91.5617C26.3462 97.0701 12.2101 97.2796 6.82494 92.6544L5.08971 91.1576C-0.295477 86.5323 -0.998543 78.3296 3.51903 72.8362L35.0972 41.8517C39.6147 36.3433 44.8055 38.1994 50.2056 42.8097L53.0628 44.3065C58.4479 48.9317 59.151 57.1344 54.6334 62.6278V62.6428Z" fill="white"/>
</g>
<g filter="url(#filter1_i_122_1973)">
<path d="M94.4839 5.95742L91.7764 2.52966C91.3874 2.05067 90.7591 1.78124 90.071 1.78124H89.7719C89.0987 1.78124 88.4555 2.06564 88.0666 2.52966L86.4959 4.52045L83.6836 0.943008C83.2049 0.344273 82.3972 0 81.5445 0H81.1705C80.3179 0 79.5251 0.359241 79.0314 0.943008L75.6358 5.2539C74.439 6.72081 75.6806 8.7116 77.7749 8.7116H84.9402C85.344 8.7116 85.718 8.62179 86.0471 8.48708C86.3463 8.62179 86.6754 8.7116 87.0494 8.7116H92.7487C94.4091 8.7116 95.3964 7.12495 94.454 5.95742H94.4839Z" fill="white"/>
</g>
<g filter="url(#filter2_i_122_1973)">
<path d="M140.138 70.8004L135.142 46.8959C130.116 22.8118 109.413 5.55321 85.359 5.25385C85.2543 5.25385 85.1496 5.25385 85.0299 5.25385C84.9252 5.25385 84.8205 5.25385 84.7008 5.25385C60.647 5.56818 39.944 22.8267 34.9178 46.9109L29.9215 70.8154C23.0704 103.581 47.5431 134.446 80.3478 134.446H89.6971C122.502 134.446 146.975 103.581 140.123 70.8154L140.138 70.8004Z" fill="white"/>
</g>
<mask id="mask0_122_1973" style="mask-type:luminance" maskUnits="userSpaceOnUse" x="28" y="5" width="114" height="130">
<path d="M140.138 71.2944L135.142 47.3899C130.116 23.3057 109.413 6.04717 85.359 5.7478C85.2543 5.7478 85.1496 5.7478 85.0299 5.7478C84.9252 5.7478 84.8205 5.7478 84.7008 5.7478C60.647 6.06214 39.944 23.3207 34.9178 47.4048L29.9215 71.3093C23.0704 104.075 47.5431 134.94 80.3478 134.94H89.6971C122.502 134.94 146.975 104.075 140.123 71.3093L140.138 71.2944Z" fill="white"/>
</mask>
<g mask="url(#mask0_122_1973)">
<path d="M150.495 65.5994L147.458 60.4353C147.234 60.5701 124.257 73.8021 87.0995 73.8021C49.9417 73.8021 22.208 60.4653 21.9387 60.3306L19.291 65.7042C20.4578 66.273 48.3112 79.7895 87.0845 79.7895C125.858 79.7895 149.493 66.1832 150.48 65.5994H150.495Z" fill="#FD442B"/>
<path d="M150.495 71.724L147.458 66.5599C147.234 66.6946 124.257 79.9267 87.0995 79.9267C49.9417 79.9267 22.208 66.5899 21.9387 66.4551L19.291 71.8288C20.4578 72.3976 48.3112 85.914 87.0845 85.914C125.858 85.914 149.493 72.3078 150.48 71.724H150.495Z" fill="#FFE7E4"/>
<path d="M150.495 83.8068L147.458 78.6427C147.234 78.7774 124.257 92.0095 87.0995 92.0095C49.9417 92.0095 22.208 78.6726 21.9387 78.5379L19.291 83.9116C20.4578 84.4804 48.3112 97.9968 87.0845 97.9968C125.858 97.9968 149.493 84.3905 150.48 83.8068H150.495Z" fill="#FFE7E4"/>
<path d="M150.495 95.8895L147.458 90.7254C147.234 90.8602 124.257 104.092 87.0995 104.092C49.9417 104.092 22.208 90.7554 21.9387 90.6207L19.291 95.9943C20.4578 96.5631 48.3112 110.08 87.0845 110.08C125.858 110.08 149.493 96.4733 150.48 95.8895H150.495Z" fill="#FFE7E4"/>
<path d="M150.495 107.972L147.458 102.808C147.234 102.943 124.257 116.175 87.0995 116.175C49.9417 116.175 22.208 102.838 21.9387 102.703L19.291 108.077C20.4578 108.646 48.3112 122.162 87.0845 122.162C125.858 122.162 149.493 108.556 150.48 107.972H150.495Z" fill="#FFE7E4"/>
<g filter="url(#filter3_i_122_1973)">
<path d="M150.495 120.055L147.458 114.891C147.234 115.026 124.257 128.258 87.0995 128.258C49.9417 128.258 22.208 114.921 21.9387 114.786L19.291 120.16C20.4578 120.729 48.3112 134.245 87.0845 134.245C125.858 134.245 149.493 120.639 150.48 120.055H150.495Z" fill="#FFE7E4"/>
</g>
<path d="M87.0995 85.9681C76.9275 85.9681 67.4884 84.9802 59.1115 83.5283C36.7779 79.6814 22.1332 72.6014 21.9387 72.4966L19.291 77.8702C20.1885 78.3193 36.8228 86.3872 62.0584 90.0994C69.6874 91.222 78.0943 91.9555 87.0845 91.9555C125.978 91.9555 149.493 78.3492 150.48 77.7655L147.443 72.6014C147.219 72.7361 124.242 85.9681 87.0845 85.9681H87.0995Z" fill="#FD442B"/>
<path d="M87.0995 98.0508C49.7772 98.0508 22.208 84.714 21.9387 84.5793L19.291 89.9529C20.4578 90.5217 48.3112 104.038 87.0845 104.038C125.858 104.038 149.493 90.4319 150.48 89.8482L147.443 84.6841C147.219 84.8188 124.242 98.0359 87.0845 98.0359L87.0995 98.0508Z" fill="#FD442B"/>
<path d="M87.0995 110.134C49.7772 110.134 22.208 96.7968 21.9387 96.662L19.291 102.036C20.4578 102.604 48.3112 116.121 87.0845 116.121C125.858 116.121 149.493 102.515 150.48 101.931L147.443 96.7668C147.219 96.9015 124.242 110.134 87.0845 110.134H87.0995Z" fill="#FD442B"/>
<path d="M87.0995 122.216C49.7772 122.216 22.208 108.88 21.9387 108.745L19.291 114.118C20.4578 114.687 48.3112 128.204 87.0845 128.204C125.858 128.204 149.493 114.597 150.48 114.014L147.443 108.85C147.219 108.984 124.242 122.216 87.0845 122.216H87.0995Z" fill="#FD442B"/>
<path d="M81.814 73.345L94.9927 79.9012L105.658 85.4395L104.955 91.4418L106.945 100.617L114.424 83.763L109.308 78.0152L115.98 70.8603L108.59 71.8332C105.518 72.2356 102.438 72.7512 99.3524 72.9935C94.7475 73.3553 90.1308 73.345 85.5088 73.345H81.814Z" fill="white"/>
</g>
<path d="M90.8439 49.0831L87.3778 44.7482C86.8891 44.1462 86.0646 43.8 85.1942 43.8H84.8125C83.9421 43.8 83.1329 44.1612 82.629 44.7482L79.1628 49.0831C77.9412 50.5581 79.2086 52.56 81.3463 52.56H88.6604C90.7981 52.56 92.0502 50.5581 90.8439 49.0831Z" fill="#FFE62B"/>
<path d="M71.926 45.0998C75.6602 45.0998 78.6874 42.0104 78.6874 38.1994C78.6874 34.3884 75.6602 31.299 71.926 31.299C68.1917 31.299 65.1646 34.3884 65.1646 38.1994C65.1646 42.0104 68.1917 45.0998 71.926 45.0998Z" fill="black"/>
<path d="M69.9515 39.1574C71.8186 39.1574 73.3322 37.616 73.3322 35.7146C73.3322 33.8133 71.8186 32.2719 69.9515 32.2719C68.0844 32.2719 66.5708 33.8133 66.5708 35.7146C66.5708 37.616 68.0844 39.1574 69.9515 39.1574Z" fill="white"/>
<path d="M72.7788 40.0553C73.7867 40.0553 74.6038 39.2243 74.6038 38.1992C74.6038 37.1741 73.7867 36.3431 72.7788 36.3431C71.7709 36.3431 70.9539 37.1741 70.9539 38.1992C70.9539 39.2243 71.7709 40.0553 72.7788 40.0553Z" fill="white"/>
<path d="M76.7127 43.7677C76.8623 45.055 74.5287 44.8454 72.3597 45.0999C70.1907 45.3543 68.994 45.983 68.8593 44.6957C68.7247 43.4084 70.3552 42.1661 72.5243 41.9116C74.6933 41.6571 76.5781 42.4804 76.7127 43.7677Z" fill="#C9E3FF"/>
<path d="M98.0739 45.0998C101.808 45.0998 104.835 42.0104 104.835 38.1994C104.835 34.3884 101.808 31.299 98.0739 31.299C94.3397 31.299 91.3125 34.3884 91.3125 38.1994C91.3125 42.0104 94.3397 45.0998 98.0739 45.0998Z" fill="black"/>
<path d="M96.1141 39.1574C97.9812 39.1574 99.4948 37.616 99.4948 35.7146C99.4948 33.8133 97.9812 32.2719 96.1141 32.2719C94.247 32.2719 92.7334 33.8133 92.7334 35.7146C92.7334 37.616 94.247 39.1574 96.1141 39.1574Z" fill="white"/>
<path d="M98.9265 40.0553C99.9344 40.0553 100.752 39.2243 100.752 38.1992C100.752 37.1741 99.9344 36.3431 98.9265 36.3431C97.9186 36.3431 97.1016 37.1741 97.1016 38.1992C97.1016 39.2243 97.9186 40.0553 98.9265 40.0553Z" fill="white"/>
<path d="M102.861 43.7677C103.01 45.055 100.677 44.8454 98.5076 45.0999C96.3386 45.3543 95.1419 45.983 95.0073 44.6957C94.8727 43.4084 96.5032 42.1661 98.6722 41.9116C100.841 41.6571 102.726 42.4804 102.861 43.7677Z" fill="#C9E3FF"/>
<path d="M105.179 27.078C105.179 27.078 100.662 29.7424 98.1338 24.8328" stroke="#231815" stroke-width="0.5" stroke-miterlimit="10" stroke-linecap="round"/>
<path d="M64.8354 27.078C64.8354 27.078 69.353 29.7424 71.8811 24.8328" stroke="#231815" stroke-width="0.5" stroke-miterlimit="10" stroke-linecap="round"/>
<path d="M81.6001 49.64C81.6001 49.64 83.4846 48.6667 85.2109 48.6667C86.9373 48.6667 88.4001 49.64 88.4001 49.64" stroke="#FFBF2B" stroke-width="0.5" stroke-miterlimit="10" stroke-linecap="round"/>
</g>
<rect x="0.5" y="0.5" width="169" height="145" stroke="black"/>
<rect x="0.5" y="0.5" width="169" height="145" stroke="black" stroke-opacity="0.2"/>
<defs>
<filter id="filter0_i_122_1973" x="0.541992" y="36.4643" width="168.916" height="59.4595" filterUnits="userSpaceOnUse" color-interpolation-filters="sRGB">
<feFlood flood-opacity="0" result="BackgroundImageFix"/>
<feBlend mode="normal" in="SourceGraphic" in2="BackgroundImageFix" result="shape"/>
<feColorMatrix in="SourceAlpha" type="matrix" values="0 0 0 0 0 0 0 0 0 0 0 0 0 0 0 0 0 0 127 0" result="hardAlpha"/>
<feOffset dy="-2"/>
<feGaussianBlur stdDeviation="4.5"/>
<feComposite in2="hardAlpha" operator="arithmetic" k2="-1" k3="1"/>
<feColorMatrix type="matrix" values="0 0 0 0 0 0 0 0 0 0 0 0 0 0 0 0 0 0 0.15 0"/>
<feBlend mode="normal" in2="shape" result="effect1_innerShadow_122_1973"/>
</filter>
<filter id="filter1_i_122_1973" x="75.1685" y="-2" width="19.6516" height="10.7116" filterUnits="userSpaceOnUse" color-interpolation-filters="sRGB">
<feFlood flood-opacity="0" result="BackgroundImageFix"/>
<feBlend mode="normal" in="SourceGraphic" in2="BackgroundImageFix" result="shape"/>
<feColorMatrix in="SourceAlpha" type="matrix" values="0 0 0 0 0 0 0 0 0 0 0 0 0 0 0 0 0 0 127 0" result="hardAlpha"/>
<feOffset dy="-2"/>
<feGaussianBlur stdDeviation="2.5"/>
<feComposite in2="hardAlpha" operator="arithmetic" k2="-1" k3="1"/>
<feColorMatrix type="matrix" values="0 0 0 0 0 0 0 0 0 0 0 0 0 0 0 0 0 0 0.15 0"/>
<feBlend mode="normal" in2="shape" result="effect1_innerShadow_122_1973"/>
</filter>
<filter id="filter2_i_122_1973" x="28.7656" y="1.25385" width="112.514" height="133.192" filterUnits="userSpaceOnUse" color-interpolation-filters="sRGB">
<feFlood flood-opacity="0" result="BackgroundImageFix"/>
<feBlend mode="normal" in="SourceGraphic" in2="BackgroundImageFix" result="shape"/>
<feColorMatrix in="SourceAlpha" type="matrix" values="0 0 0 0 0 0 0 0 0 0 0 0 0 0 0 0 0 0 127 0" result="hardAlpha"/>
<feOffset dy="-4"/>
<feGaussianBlur stdDeviation="4"/>
<feComposite in2="hardAlpha" operator="arithmetic" k2="-1" k3="1"/>
<feColorMatrix type="matrix" values="0 0 0 0 0 0 0 0 0 0 0 0 0 0 0 0 0 0 0.25 0"/>
<feBlend mode="normal" in2="shape" result="effect1_innerShadow_122_1973"/>
</filter>
<filter id="filter3_i_122_1973" x="19.291" y="110.786" width="131.204" height="23.4589" filterUnits="userSpaceOnUse" color-interpolation-filters="sRGB">
<feFlood flood-opacity="0" result="BackgroundImageFix"/>
<feBlend mode="normal" in="SourceGraphic" in2="BackgroundImageFix" result="shape"/>
<feColorMatrix in="SourceAlpha" type="matrix" values="0 0 0 0 0 0 0 0 0 0 0 0 0 0 0 0 0 0 127 0" result="hardAlpha"/>
<feOffset dy="-5"/>
<feGaussianBlur stdDeviation="2"/>
<feComposite in2="hardAlpha" operator="arithmetic" k2="-1" k3="1"/>
<feColorMatrix type="matrix" values="0 0 0 0 0 0 0 0 0 0 0 0 0 0 0 0 0 0 0.25 0"/>
<feBlend mode="normal" in2="shape" result="effect1_innerShadow_122_1973"/>
</filter>
<clipPath id="clip0_122_1973">
<rect width="170" height="146" fill="white"/>
</clipPath>
</defs>
</svg>
