<svg width="141" height="121" viewBox="0 0 141 121" fill="none" xmlns="http://www.w3.org/2000/svg">
<g clip-path="url(#clip0_122_2107)">
<path d="M69.6944 121C98.3959 121 121.663 117.388 121.663 112.933C121.663 108.478 98.3959 104.867 69.6944 104.867C40.993 104.867 17.7258 108.478 17.7258 112.933C17.7258 117.388 40.993 121 69.6944 121Z" fill="#444444"/>
<g filter="url(#filter0_i_122_2107)">
<path d="M95.6865 51.9163L115.401 75.8833C119.148 80.4485 130.873 80.6221 135.339 76.7889L136.779 75.5484C141.245 71.7151 141.828 64.917 138.081 60.3643L111.89 34.6853C108.143 30.1201 103.838 31.6584 99.359 35.4792L96.9892 36.7198C92.5227 40.553 91.9395 47.3511 95.6865 51.9039V51.9163Z" fill="white"/>
<path d="M45.3138 51.9163L25.599 75.8833C21.8521 80.4485 10.1274 80.6221 5.66085 76.7889L4.22164 75.5484C-0.2449 71.7151 -0.828031 64.917 2.9189 60.3643L29.1102 34.6853C32.8571 30.1201 37.1624 31.6584 41.6413 35.4792L44.011 36.7198C48.4776 40.553 49.0607 47.3511 45.3138 51.9039V51.9163Z" fill="white"/>
</g>
<g filter="url(#filter1_i_122_2107)">
<path d="M78.3659 4.93731L76.1202 2.0965C75.7977 1.69953 75.2766 1.47623 74.7058 1.47623H74.4577C73.8994 1.47623 73.3659 1.71193 73.0433 2.0965L71.7406 3.7464L69.408 0.781534C69.011 0.285322 68.341 0 67.6338 0H67.3236C66.6164 0 65.9589 0.297727 65.5494 0.781534L62.733 4.35426C61.7405 5.56998 62.7703 7.21989 64.5072 7.21989H70.4502C70.7852 7.21989 71.0954 7.14546 71.3683 7.03381C71.6165 7.14546 71.8894 7.21989 72.1996 7.21989H76.9267C78.3039 7.21989 79.1227 5.90493 78.3411 4.93731H78.3659Z" fill="white"/>
</g>
<g filter="url(#filter2_i_122_2107)">
<path d="M116.232 58.677L112.088 38.8658C107.92 18.9056 90.7482 4.60229 70.7976 4.35419C70.7108 4.35419 70.6239 4.35419 70.5247 4.35419C70.4378 4.35419 70.351 4.35419 70.2517 4.35419C50.3012 4.6147 33.1298 18.918 28.9611 38.8782L24.8171 58.6894C19.1347 85.8447 39.4326 111.424 66.6413 111.424H74.3957C101.604 111.424 121.902 85.8447 116.22 58.6894L116.232 58.677Z" fill="white"/>
</g>
<mask id="mask0_122_2107" style="mask-type:luminance" maskUnits="userSpaceOnUse" x="23" y="4" width="95" height="108">
<path d="M116.232 59.0865L112.088 39.2752C107.92 19.315 90.7482 5.01172 70.7976 4.76361C70.7108 4.76361 70.6239 4.76361 70.5247 4.76361C70.4378 4.76361 70.351 4.76361 70.2517 4.76361C50.3012 5.02412 33.1298 19.3274 28.9611 39.2876L24.8171 59.0989C19.1347 86.2541 39.4326 111.834 66.6413 111.834H74.3957C101.604 111.834 121.902 86.2541 116.22 59.0989L116.232 59.0865Z" fill="white"/>
</mask>
<g mask="url(#mask0_122_2107)">
<path d="M124.822 54.3667L122.304 50.0869C122.117 50.1985 103.06 61.1648 72.2411 61.1648C41.422 61.1648 18.4194 50.1117 18.196 50L16 54.4535C16.9677 54.9249 40.0697 66.1269 72.2287 66.1269C104.388 66.1269 123.991 54.8505 124.81 54.3667H124.822Z" fill="#FD442B"/>
<path d="M124.822 59.3667L122.304 55.0869C122.117 55.1985 103.06 66.1648 72.2411 66.1648C41.422 66.1648 18.4194 55.1117 18.196 55L16 59.4535C16.9677 59.9249 40.0697 71.1269 72.2287 71.1269C104.388 71.1269 123.991 59.8505 124.81 59.3667H124.822Z" fill="#FFE7E4"/>
<path d="M72.2411 71.6224C63.8044 71.6224 55.9755 70.8037 49.0276 69.6004C30.5038 66.4122 18.3573 60.5445 18.196 60.4577L16 64.9112C16.7444 65.2833 30.5411 71.9698 51.4717 75.0463C57.7993 75.9767 64.7721 76.5846 72.2287 76.5846C104.487 76.5846 123.991 65.3081 124.81 64.8243L122.291 60.5445C122.105 60.6562 103.048 71.6224 72.2287 71.6224H72.2411Z" fill="#FD442B"/>
<path d="M72.2411 82.0677C41.2856 82.0677 18.4194 71.0146 18.196 70.903L16 75.3565C16.9677 75.8279 40.0697 87.0299 72.2287 87.0299C104.388 87.0299 123.991 75.7534 124.81 75.2696L122.291 70.9898C122.105 71.1014 103.048 82.0553 72.2287 82.0553L72.2411 82.0677Z" fill="#FD442B"/>
<path d="M72.2411 92.513C41.2856 92.513 18.4194 81.4599 18.196 81.3482L16 85.8017C16.9677 86.2731 40.0697 97.4751 72.2287 97.4751C104.388 97.4751 123.991 86.1987 124.81 85.7149L122.291 81.4351C122.105 81.5467 103.048 92.513 72.2287 92.513H72.2411Z" fill="#FD442B"/>
<path d="M72.2411 101.693C41.2856 101.693 18.4194 90.6399 18.196 90.5283L16 94.9818C16.9677 95.4532 40.0697 106.655 72.2287 106.655C104.388 106.655 123.991 95.3787 124.81 94.8949L122.291 90.6151C122.105 90.7267 103.048 101.693 72.2287 101.693H72.2411Z" fill="#FD442B"/>
<path d="M67.8572 60.786L78.7878 66.2195L87.634 70.8095L87.0509 75.784L88.701 83.3884L94.9045 69.4201L90.6613 64.6564L96.1949 58.7267L90.0658 59.533C87.5173 59.8665 84.9627 60.2938 82.4038 60.4946C78.5844 60.7945 74.7553 60.786 70.9217 60.786H67.8572Z" fill="white"/>
</g>
<path d="M75.3471 40.6784L72.4722 37.0859C72.0669 36.5869 71.383 36.3 70.6611 36.3H70.3445C69.6226 36.3 68.9514 36.5994 68.5335 37.0859L65.6586 40.6784C64.6454 41.9009 65.6966 43.56 67.4696 43.56H73.536C75.3091 43.56 76.3476 41.9009 75.3471 40.6784Z" fill="#FFE62B"/>
<path d="M59.6563 37.3772C62.7535 37.3772 65.2643 34.8168 65.2643 31.6584C65.2643 28.4999 62.7535 25.9395 59.6563 25.9395C56.5591 25.9395 54.0483 28.4999 54.0483 31.6584C54.0483 34.8168 56.5591 37.3772 59.6563 37.3772Z" fill="black"/>
<path d="M58.0186 32.4524C59.5672 32.4524 60.8226 31.1749 60.8226 29.5991C60.8226 28.0233 59.5672 26.7459 58.0186 26.7459C56.47 26.7459 55.2146 28.0233 55.2146 29.5991C55.2146 31.1749 56.47 32.4524 58.0186 32.4524Z" fill="white"/>
<path d="M60.3635 33.1965C61.1995 33.1965 61.8772 32.5078 61.8772 31.6583C61.8772 30.8087 61.1995 30.12 60.3635 30.12C59.5275 30.12 58.8499 30.8087 58.8499 31.6583C58.8499 32.5078 59.5275 33.1965 60.3635 33.1965Z" fill="white"/>
<path d="M63.6266 36.2732C63.7507 37.34 61.8152 37.1664 60.0161 37.3772C58.2171 37.5881 57.2246 38.1092 57.1129 37.0423C57.0012 35.9754 58.3536 34.9458 60.1526 34.7349C61.9516 34.524 63.5149 35.2063 63.6266 36.2732Z" fill="#C9E3FF"/>
<path d="M81.3438 37.3772C84.441 37.3772 86.9518 34.8168 86.9518 31.6584C86.9518 28.4999 84.441 25.9395 81.3438 25.9395C78.2466 25.9395 75.7358 28.4999 75.7358 31.6584C75.7358 34.8168 78.2466 37.3772 81.3438 37.3772Z" fill="black"/>
<path d="M79.7183 32.4524C81.2669 32.4524 82.5223 31.1749 82.5223 29.5991C82.5223 28.0233 81.2669 26.7459 79.7183 26.7459C78.1697 26.7459 76.9143 28.0233 76.9143 29.5991C76.9143 31.1749 78.1697 32.4524 79.7183 32.4524Z" fill="white"/>
<path d="M82.051 33.1965C82.887 33.1965 83.5647 32.5078 83.5647 31.6583C83.5647 30.8087 82.887 30.12 82.051 30.12C81.215 30.12 80.5374 30.8087 80.5374 31.6583C80.5374 32.5078 81.215 33.1965 82.051 33.1965Z" fill="white"/>
<path d="M85.3138 36.2732C85.4379 37.34 83.5024 37.1664 81.7034 37.3772C79.9044 37.5881 78.9118 38.1092 78.8001 37.0423C78.6885 35.9754 80.0408 34.9458 81.8399 34.7349C83.6389 34.524 85.2022 35.2063 85.3138 36.2732Z" fill="#C9E3FF"/>
<path d="M87.237 22.4414C87.237 22.4414 83.4901 24.6495 81.3933 20.5806" stroke="#231815" stroke-width="0.5" stroke-miterlimit="10" stroke-linecap="round"/>
<path d="M53.7754 22.4414C53.7754 22.4414 57.5223 24.6495 59.6191 20.5806" stroke="#231815" stroke-width="0.5" stroke-miterlimit="10" stroke-linecap="round"/>
<path d="M67.6799 41.14C67.6799 41.14 69.243 40.3333 70.6748 40.3333C72.1067 40.3333 73.3199 41.14 73.3199 41.14" stroke="#FFBF2B" stroke-width="0.5" stroke-miterlimit="10" stroke-linecap="round"/>
</g>
<defs>
<filter id="filter0_i_122_2107" x="0.449707" y="29.8779" width="140.101" height="49.6206" filterUnits="userSpaceOnUse" color-interpolation-filters="sRGB">
<feFlood flood-opacity="0" result="BackgroundImageFix"/>
<feBlend mode="normal" in="SourceGraphic" in2="BackgroundImageFix" result="shape"/>
<feColorMatrix in="SourceAlpha" type="matrix" values="0 0 0 0 0 0 0 0 0 0 0 0 0 0 0 0 0 0 127 0" result="hardAlpha"/>
<feOffset dy="-2"/>
<feGaussianBlur stdDeviation="4.5"/>
<feComposite in2="hardAlpha" operator="arithmetic" k2="-1" k3="1"/>
<feColorMatrix type="matrix" values="0 0 0 0 0 0 0 0 0 0 0 0 0 0 0 0 0 0 0.15 0"/>
<feBlend mode="normal" in2="shape" result="effect1_innerShadow_122_2107"/>
</filter>
<filter id="filter1_i_122_2107" x="62.3455" y="-2" width="16.2993" height="9.21991" filterUnits="userSpaceOnUse" color-interpolation-filters="sRGB">
<feFlood flood-opacity="0" result="BackgroundImageFix"/>
<feBlend mode="normal" in="SourceGraphic" in2="BackgroundImageFix" result="shape"/>
<feColorMatrix in="SourceAlpha" type="matrix" values="0 0 0 0 0 0 0 0 0 0 0 0 0 0 0 0 0 0 127 0" result="hardAlpha"/>
<feOffset dy="-2"/>
<feGaussianBlur stdDeviation="2.5"/>
<feComposite in2="hardAlpha" operator="arithmetic" k2="-1" k3="1"/>
<feColorMatrix type="matrix" values="0 0 0 0 0 0 0 0 0 0 0 0 0 0 0 0 0 0 0.15 0"/>
<feBlend mode="normal" in2="shape" result="effect1_innerShadow_122_2107"/>
</filter>
<filter id="filter2_i_122_2107" x="23.8584" y="0.354187" width="93.3201" height="111.07" filterUnits="userSpaceOnUse" color-interpolation-filters="sRGB">
<feFlood flood-opacity="0" result="BackgroundImageFix"/>
<feBlend mode="normal" in="SourceGraphic" in2="BackgroundImageFix" result="shape"/>
<feColorMatrix in="SourceAlpha" type="matrix" values="0 0 0 0 0 0 0 0 0 0 0 0 0 0 0 0 0 0 127 0" result="hardAlpha"/>
<feOffset dy="-4"/>
<feGaussianBlur stdDeviation="4"/>
<feComposite in2="hardAlpha" operator="arithmetic" k2="-1" k3="1"/>
<feColorMatrix type="matrix" values="0 0 0 0 0 0 0 0 0 0 0 0 0 0 0 0 0 0 0.25 0"/>
<feBlend mode="normal" in2="shape" result="effect1_innerShadow_122_2107"/>
</filter>
<clipPath id="clip0_122_2107">
<rect width="141" height="121" fill="white"/>
</clipPath>
</defs>
</svg>
