<svg width="24" height="24" viewBox="0 0 24 24" fill="none" xmlns="http://www.w3.org/2000/svg">
<path d="M15 8.25C15 9.90766 13.6577 11.25 12 11.25C10.3423 11.25 9 9.90766 9 8.25C9 6.59234 10.3423 5.25 12 5.25C13.6577 5.25 15 6.59234 15 8.25ZM5.25 17.625C5.25 17.277 5.41836 16.9167 5.82854 16.5382C6.24382 16.1549 6.85495 15.8056 7.59023 15.5111C9.062 14.9215 10.8422 14.625 12 14.625C13.1578 14.625 14.938 14.9215 16.4098 15.5111C17.1451 15.8056 17.7562 16.1549 18.1715 16.5382C18.5816 16.9167 18.75 17.277 18.75 17.625V18.5625C18.75 18.6639 18.6639 18.75 18.5625 18.75H5.4375C5.33609 18.75 5.25 18.6639 5.25 18.5625V17.625Z" stroke="black" stroke-width="1.5"/>
</svg>
