<?xml version="1.0" encoding="UTF-8"?>
<svg id="_레이어_1" data-name="레이어 1" xmlns="http://www.w3.org/2000/svg" viewBox="0 0 113.39 113.39">
  <defs>
    <style>
      .cls-1 {
        fill: #231815;
      }

      .cls-1, .cls-2 {
        stroke-width: 0px;
      }

      .cls-2 {
        fill: #fff;
      }
    </style>
  </defs>
  <path class="cls-2" d="m23.44,65.27h66.46l.05-9.43s-.36-4.98-4.25-6.48c0,0-2.12-1.14-4.15-1.24H31.42s-4.82.46-6.79,4.15c0,0-1.5,1.76-1.14,6.95l-.05,6.06Z"/>
  <path class="cls-1" d="m31.51,51h50.38c1.29,0,2.34,1.04,2.34,2.34v9.04H29.16v-9.04c0-1.3,1.05-2.34,2.34-2.34Z"/>
  <g>
    <path class="cls-2" d="m38.77,58.35h-.72c-.07,0-.12-.05-.12-.11v-1.75c0-.07-.06-.11-.13-.11h-1.87c-.07,0-.13.04-.13.11v1.75c0,.06-.06.11-.12.11h-.72c-.07,0-.12-.05-.12-.11v-4.34c0-.06.05-.11.12-.11h.72c.07,0,.12.05.12.11v1.69c0,.06.06.11.13.11h1.87c.07,0,.13-.05.13-.11v-1.69c0-.06.05-.11.12-.11h.72c.07,0,.12.05.12.11v4.34c0,.06-.05.11-.12.11Z"/>
    <path class="cls-2" d="m43.27,59.21l-.45.71c-.03.05-.11.1-.18.1h-.09c-.06,0-.11-.05-.12-.1h0v-1.78c0-.06-.06-.1-.12-.08l-1.31.32c-.07.01-.13.02-.21.02-.44,0-.8-.32-.8-.72v-2.69c0-.06.05-.12.12-.12h.69c.07,0,.12.05.12.12v2.61c0,.06.05.11.12.11h1.25c.07,0,.12-.05.12-.11v-2.61h0c0-.07.06-.12.12-.12h.69s.03.01.06.02c.03.02.06.04.07.08h0v3.94c0,.1-.03.22-.09.3Z"/>
    <path class="cls-2" d="m47.61,58.35h-.69c-.07,0-.12-.05-.12-.11v-.1c0-.06-.05-.1-.12-.08l-1.31.32c-.07.01-.13.02-.21.02-.44,0-.8-.32-.8-.72v-2.69c0-.06.06-.12.12-.12h.69c.07,0,.12.05.12.12v2.61c0,.06.05.11.12.11h1.26c.07,0,.12-.05.12-.11v-2.61c0-.06.05-.12.12-.12h.69c.07,0,.12.05.12.12v3.25c0,.06-.05.11-.12.11Z"/>
    <path class="cls-2" d="m52.12,58.24c0,.06-.06.11-.12.11h-.69c-.07,0-.12-.05-.12-.11v-2.61c0-.06-.05-.11-.12-.11h-1.25c-.07,0-.12.05-.12.11v2.61c0,.06-.06.11-.12.11h-.69c-.07,0-.12-.05-.12-.11v-3.25c0-.06.05-.12.12-.12h.69c.07,0,.12.05.12.12v.1c0,.06.05.09.11.08l1.31-.32c.07-.02.13-.03.21-.03.44,0,.8.32.8.72v2.7Z"/>
    <path class="cls-2" d="m56.31,58.35h-.69c-.07,0-.12-.05-.12-.11v-.1c0-.06-.06-.1-.12-.08l-1.32.32c-.07.01-.13.02-.2.02-.44,0-.79-.32-.79-.72v-1.56c0-.32.19-.6.48-.75l.73-.38c.14-.07.3-.12.48-.12h.63c.07,0,.12-.05.12-.11v-1.28c0-.06.05-.11.12-.11h.69c.06,0,.12.05.12.11v4.76c0,.06-.06.11-.12.11Zm-.81-.91v-1.81c0-.06-.06-.11-.12-.11h-1.26c-.07,0-.13.05-.13.11v1.97c0,.06.06.11.13.11h1.26c.07,0,.12-.05.12-.11v-.16Z"/>
    <path class="cls-2" d="m57.38,56.12c0-.32.19-.6.48-.75l.73-.38c.14-.07.31-.12.48-.12h1.55c.07,0,.12.05.12.12v3.25c0,.06-.05.11-.12.11h-.69c-.07,0-.12-.05-.12-.11v-.1c0-.06-.06-.1-.11-.08l-1.32.32c-.07.01-.13.02-.2.02-.44,0-.8-.32-.8-.72v-1.56Zm2.43-.5c0-.06-.06-.11-.12-.11h-1.26c-.07,0-.13.05-.13.11v1.97c0,.06.06.11.13.11h1.26c.07,0,.12-.05.12-.11v-1.97Z"/>
    <path class="cls-2" d="m62.57,54.1h-.69c-.07,0-.12-.05-.12-.11v-.51c0-.06.05-.11.12-.11h.69c.07,0,.12.05.12.11v.51c0,.06-.06.11-.12.11Zm0,4.25h-.69c-.07,0-.12-.05-.12-.11v-3.25c0-.06.05-.12.12-.12h.69c.07,0,.12.05.12.12v3.25c0,.06-.06.11-.12.11Z"/>
    <path class="cls-2" d="m67.23,54.46h-2.36c-.06,0-.13.05-.13.12v2.97c0,.07.06.12.13.12h2.43c.07,0,.13.04.13.09,0,.06-.05.13-.12.16l-.57.3c-.15.07-.32.12-.49.12h-1.48c-.55,0-1-.4-1-.9v-2.34c0-.34.19-.64.5-.79l.74-.39s.1-.05.13-.06c.13-.05.27-.08.42-.08h1.68c.07,0,.13.05.13.11v.46c0,.06-.06.11-.13.11Z"/>
    <path class="cls-2" d="m67.99,56.12c0-.32.19-.6.48-.75l.73-.38c.14-.07.3-.12.48-.12h1.56c.07,0,.12.05.12.12v3.25c0,.06-.06.11-.12.11h-.69c-.07,0-.12-.05-.12-.11v-.1c0-.06-.05-.1-.12-.08l-1.32.32c-.07.01-.13.02-.2.02-.43,0-.79-.32-.79-.72v-1.56Zm2.43-.5c0-.06-.05-.11-.12-.11h-1.26c-.07,0-.13.05-.13.11v1.97c0,.06.06.11.13.11h1.26c.07,0,.12-.05.12-.11v-1.97Z"/>
    <path class="cls-2" d="m74.78,55.51h-1.35c-.07,0-.12.05-.12.11v2.61c0,.06-.05.11-.12.11h-.68c-.07,0-.13-.05-.13-.11v-3.25c0-.06.06-.12.13-.12h.68c.07,0,.12.05.12.12v.09c0,.06.05.11.12.11.02,0,.05,0,.06-.01l.42-.24c.13-.07.29-.11.46-.11h.41c.06,0,.12.05.12.11v.46c0,.07-.05.11-.12.11Z"/>
    <path class="cls-2" d="m78.4,58.35h-.69c-.07,0-.12-.05-.12-.11v-.1c0-.06-.05-.1-.11-.08l-1.32.32c-.07.01-.13.02-.2.02-.44,0-.79-.32-.79-.72v-1.56c0-.32.19-.6.48-.75l.73-.38c.14-.07.3-.12.48-.12h.63c.07,0,.12-.05.12-.11v-1.28c0-.06.06-.11.12-.11h.69c.07,0,.12.05.12.11v4.76c0,.06-.06.11-.12.11Zm-.81-.91v-1.81c0-.06-.05-.11-.12-.11h-1.26c-.07,0-.13.05-.13.11v1.97c0,.06.06.11.13.11h1.26c.07,0,.12-.05.12-.11v-.16Z"/>
  </g>
  <path class="cls-1" d="m31.5,48.06c-4.54,0-8.23,3.69-8.23,8.23v9.03h.42v-9.03c0-4.31,3.51-7.81,7.81-7.81h50.38c4.3,0,7.81,3.5,7.81,7.81v9.03h.42v-9.03c0-4.54-3.69-8.23-8.23-8.23H31.5Z"/>
</svg>