<?xml version="1.0" encoding="UTF-8"?>
<svg id="_레이어_1" data-name="레이어 1" xmlns="http://www.w3.org/2000/svg" viewBox="0 0 113.39 113.39">
  <defs>
    <style>
      .cls-1 {
        fill: #fff;
      }

      .cls-1, .cls-2 {
        stroke-width: 0px;
      }

      .cls-2 {
        fill: #0058a6;
      }
    </style>
  </defs>
  <path class="cls-2" d="m91.59,59.91c16.4-8.41,14.35-16.44-2.34-18.1-17.98-1.79-44.25,2.08-62.55,9.47l-2.54,1.09c-19.06,8.52-17.26,17.54-.24,19.19,18.59,1.8,46.86-1.88,65.37-10.5l2.31-1.16Z"/>
  <path class="cls-1" d="m88.05,61.56s-3.13.25-3.21-2.27v-4.89s-.39-2.7,3.12-2.7c0,0,2.28-.07,2.89,1.28,0,0,.3.36.22,1.86h-2.43v-.77s0-.62-.64-.62c0,0-.66.03-.66.55v5.05s-.03.68.71.68c0,0,.61-.01.61-.73v-1.46h-.66v-1.36h3.13v2.87s0,.6-.26.96c0,0-.26.39-.35.46,0,0-.84,1.08-2.47,1.08Z"/>
  <polygon class="cls-1" points="81.61 52.07 79.17 52.07 79.35 57.67 79.24 57.67 76.77 52.07 73.81 52.07 73.81 61.3 76.22 61.3 76.08 55.65 76.18 55.65 78.74 61.3 81.61 61.3 81.61 52.07"/>
  <path class="cls-1" d="m66.52,52.03h-2.64v6.92s-.27,2.62,3.43,2.62c0,0,3.21.04,3.21-2.5v-7.04h-2.58v6.95s.03.76-.67.76c0,0-.74.04-.74-.74v-6.98Z"/>
  <path class="cls-1" d="m60.85,54.89v-1.16s.18-1.9-2.86-1.98c0,0-2.4-.16-3.08,1.13,0,0-.27.29-.27,1.29v.72s-.03.84.4,1.38c0,0,.24.35.84.74,0,0,1.21.65,1.93,1.02,0,0,.73.42.63,1.08,0,0-.06.68-.76.66,0,0-.65-.03-.65-.7v-.79h-2.59v1.14s-.07,2.18,3.25,2.18c0,0,3.18.07,3.32-2.24v-.93s.11-1.41-1.12-2.16c0,0-.66-.41-1.07-.56,0,0-1.26-.59-1.51-.86,0,0-.49-.46-.2-1,0,0,.12-.35.64-.35,0,0,.68.04.68.59v.79h2.43Z"/>
  <polygon class="cls-1" points="41.63 52.07 41.42 61.3 43.82 61.3 43.85 54.34 44.04 54.34 45.31 61.29 47.84 61.29 49.1 54.34 49.27 54.34 49.32 61.3 51.74 61.3 51.48 52.07 47.46 52.07 46.65 57.12 46.46 57.12 45.68 52.07 41.63 52.07"/>
  <polygon class="cls-1" points="38.84 61.28 37.25 52.06 33.16 52.06 31.57 61.28 34.15 61.28 35.1 54.13 35.31 54.13 36.26 61.28 38.84 61.28"/>
  <path class="cls-1" d="m29.03,54.89v-1.16s.18-1.9-2.87-1.98c0,0-2.4-.16-3.08,1.13,0,0-.27.29-.27,1.29v.72s-.03.84.4,1.38c0,0,.24.35.84.74,0,0,1.21.65,1.93,1.02,0,0,.73.42.63,1.08,0,0-.06.68-.76.66,0,0-.65-.03-.65-.7v-.79h-2.59v1.14s-.07,2.18,3.25,2.18c0,0,3.17.07,3.32-2.24v-.93s.11-1.41-1.13-2.16c0,0-.66-.41-1.07-.56,0,0-1.26-.59-1.51-.86,0,0-.49-.46-.21-1,0,0,.12-.35.64-.35,0,0,.68.04.68.59v.79h2.43Z"/>
</svg>