<?xml version="1.0" encoding="UTF-8"?>
<svg id="_레이어_1" data-name="레이어 1" xmlns="http://www.w3.org/2000/svg" xmlns:xlink="http://www.w3.org/1999/xlink" viewBox="0 0 113.39 113.39">
  <defs>
    <style>
      .cls-1 {
        fill: url(#linear-gradient);
      }

      .cls-1, .cls-2, .cls-3, .cls-4 {
        stroke-width: 0px;
      }

      .cls-2 {
        fill: #fff;
      }

      .cls-3 {
        fill: #e83e44;
      }

      .cls-4 {
        fill: #005bac;
      }
    </style>
    <linearGradient id="linear-gradient" x1="-966.95" y1="532.81" x2="-975.19" y2="539.42" gradientTransform="translate(987.58 -473.44)" gradientUnits="userSpaceOnUse">
      <stop offset="0" stop-color="#f7f8f8"/>
      <stop offset=".44" stop-color="#eeefef"/>
      <stop offset="1" stop-color="#dcdddd"/>
    </linearGradient>
  </defs>
  <g>
    <path class="cls-4" d="m107.11,42.32h-4.36v11.26h-17.82v-11.26h-4.36c-1.03,0-1.87.99-1.87,2.22v23.8c0,1.22.84,2.22,1.87,2.22h4.36v-12.09h17.82v12.09h4.36c1.04,0,1.87-1,1.87-2.22v-23.8c0-1.23-.83-2.22-1.87-2.22Z"/>
    <path class="cls-4" d="m71.42,42.32h-4.36v21.62l-13.11-17.27c-2.18-2.52-3.68-4.35-7.16-4.35h-4.44v26.02c0,1.22.83,2.22,1.88,2.22h4.36v-21.72l13.19,17.15c2.23,2.58,4.21,4.57,7.44,4.57h4.07v-26.02c0-1.23-.84-2.22-1.87-2.22Z"/>
  </g>
  <g>
    <path class="cls-3" d="m35.75,56.69c0,8.65-7.02,15.67-15.67,15.67s-15.67-7.01-15.67-15.67,7.02-15.67,15.67-15.67,15.67,7.02,15.67,15.67Z"/>
    <polygon class="cls-1" points="27.51 53.85 27.51 53.85 27.51 53.86 27.51 53.85"/>
    <g>
      <path class="cls-2" d="m12.01,52.98c-.49-.29-1.06-.38-1.62-.3,1.03-1.09,1.59-2.28,1.59-3.48,0-.11,0-.22-.02-.33-.06-.75-.4-1.31-.93-1.5-.54-.2-1.51-.1-3.08,1.49l-.93,1.05c-.25.32-1.24,1.8-1.42,3.35-.3,2.63-.11,5.26.56,7.59.08.27.33.93.93,1.17.64.26,1.25-.05,1.79-.33l.14-.07.55-.25.54-.24.66-.29c.47-.19.91-.37,1.34-.73.58-.49,1-1.13,1.21-1.86.11-.38.19-.79.23-1.26.03-.36.07-1.07-.07-1.69-.29-1.36-.98-2.02-1.49-2.32Zm-4.99,1.96s.03.35.03.35c0,.08.04.15.11.18.06.03.14.01.2-.04.58-.49,1.47-.93,2.18-.68.55.19.94.77,1.13,1.71.41,1.98-.95,2.93-1.8,3.32h-.03s-1.08.55-1.08.55c0,0-.06.02-.13,0-.07-.03-.09-.08-.13-.19-.74-2.72-.99-5.58-.71-8.24.03-.21.12-.45.28-.64l.9-.97.1-.11c.5-.48.95-.72,1.21-.62.21.09.27.42.27.68.04,1.42-.75,2.86-2.42,4.42,0,0-.12.1-.11.29Z"/>
      <path class="cls-2" d="m24.31,44.72c-.3-1.04-.81-1.26-.95-1.31-1.3-.42-2.65-.5-3.97-.27-1.97.36-3.68,1.39-4.81,2.91-1.18,1.6-1.64,3.58-1.29,5.59.36,2.02,1.38,3.65,2.96,4.73,1.85,1.25,4.33,1.63,6.97,1.07,1.56-.33,2.85-.94,3.85-1.8.45-.39.53-.88.53-1.23,0,0,.02-.28-.2-1.15-.06-.22-.15-.28-.3-.28-.11,0-.22.12-.25.15-.74.86-1.88,1.46-3.3,1.74-3.63.7-6.43-1-7.12-4.33-.3-1.44-.05-2.82.7-3.9.76-1.08,2-1.81,3.49-2.03,1.14-.17,2.29-.03,3.34.41,0,0,.44.13.34-.31Z"/>
    </g>
  </g>
</svg>