<?xml version="1.0" encoding="UTF-8"?>
<svg id="_레이어_1" data-name="레이어 1" xmlns="http://www.w3.org/2000/svg" xmlns:xlink="http://www.w3.org/1999/xlink" viewBox="0 0 113.39 113.39">
  <defs>
    <style>
      .cls-1 {
        fill: url(#linear-gradient);
      }

      .cls-1, .cls-2, .cls-3 {
        stroke-width: 0px;
      }

      .cls-2 {
        fill: #fff;
      }

      .cls-3 {
        fill: #e83e44;
      }
    </style>
    <linearGradient id="linear-gradient" x1="-930.39" y1="532.94" x2="-938.94" y2="539.8" gradientTransform="translate(987.58 -473.44)" gradientUnits="userSpaceOnUse">
      <stop offset="0" stop-color="#f7f8f8"/>
      <stop offset=".44" stop-color="#eeefef"/>
      <stop offset="1" stop-color="#dcdddd"/>
    </linearGradient>
  </defs>
  <path class="cls-3" d="m72.81,56.69c0,8.9-7.22,16.12-16.12,16.12s-16.12-7.21-16.12-16.12,7.22-16.12,16.12-16.12,16.12,7.22,16.12,16.12Z"/>
  <polygon class="cls-1" points="64.34 53.77 64.34 53.77 64.34 53.78 64.34 53.77"/>
  <g>
    <path class="cls-2" d="m48.39,52.88c-.51-.3-1.09-.39-1.66-.31,1.06-1.12,1.63-2.35,1.63-3.58,0-.11,0-.23-.02-.34-.06-.77-.42-1.35-.96-1.54-.56-.2-1.56-.1-3.16,1.54l-.96,1.08c-.26.32-1.27,1.85-1.46,3.44-.31,2.71-.11,5.4.58,7.8.08.28.34.95.96,1.21.66.26,1.29-.05,1.84-.34l.15-.07.57-.26.56-.25.68-.3c.48-.2.94-.38,1.38-.75.59-.5,1.02-1.16,1.25-1.91.11-.39.19-.81.24-1.29.03-.37.07-1.1-.07-1.73-.3-1.4-1-2.07-1.54-2.39Zm-5.13,2.02s.03.36.03.36c0,.08.04.15.11.18.07.03.14.01.2-.04.6-.5,1.51-.95,2.25-.7.57.2.96.79,1.16,1.76.42,2.03-.98,3.01-1.85,3.41h-.03s-1.11.56-1.11.56c0,0-.06.02-.13,0-.07-.03-.09-.08-.13-.2-.76-2.8-1.02-5.73-.73-8.47.03-.21.12-.46.29-.66l.93-1,.11-.11c.51-.5.98-.74,1.24-.63.22.09.27.43.28.7.04,1.46-.77,2.94-2.48,4.55,0,0-.13.11-.11.3Z"/>
    <path class="cls-2" d="m61.04,44.38c-.31-1.07-.83-1.3-.97-1.35-1.34-.43-2.73-.51-4.08-.28-2.03.37-3.79,1.43-4.95,3-1.22,1.64-1.69,3.68-1.33,5.75.37,2.08,1.42,3.76,3.05,4.86,1.91,1.29,4.45,1.68,7.16,1.11,1.6-.34,2.93-.97,3.96-1.86.46-.4.55-.9.55-1.26,0,0,.02-.29-.2-1.19-.06-.22-.16-.29-.31-.29-.11,0-.23.13-.25.15-.76.89-1.93,1.5-3.39,1.79-3.74.72-6.61-1.03-7.32-4.45-.31-1.48-.05-2.91.72-4.01.78-1.12,2.05-1.86,3.59-2.09,1.17-.17,2.36-.03,3.43.42,0,0,.45.13.35-.32Z"/>
  </g>
</svg>