<?xml version="1.0" encoding="UTF-8"?>
<svg id="_레이어_1" data-name="레이어 1" xmlns="http://www.w3.org/2000/svg" viewBox="0 0 113.39 113.39">
  <defs>
    <style>
      .cls-1 {
        fill: #e60044;
      }

      .cls-1, .cls-2 {
        stroke-width: 0px;
      }

      .cls-2 {
        fill: #00958d;
      }
    </style>
  </defs>
  <path class="cls-2" d="m62.19,59.69c-.08-.49-.22-.97-.41-1.41-.63-1.35-1.5-2.48-2.8-3.24-2.03-1.19-4.48-1.18-6.49.04-.91.55-1.66,1.34-2.14,2.29-.16.32-.3.66-.41,1-.53,1.68-.51,3.94.44,5.48.31.5.76.93,1.31,1.14.55.21,1.2.19,1.7-.13.64-.41.75-1.2.63-1.9-.15-.89-.27-1.77.06-2.65.11-.28.26-.55.47-.75.13-.13.28-.23.45-.31.35-.17.74-.25,1.12-.18.67.11,1.21.62,1.51,1.23.3.6.38,1.29.41,1.96.14,2.93-.56,5.96-1.31,8.78-.08.29-.16.58-.24.87-.06.22-.18.51-.03.72.06.09.16.16.26.2.43.17.79-.09,1.08-.38,1.72-1.73,2.82-3.96,3.57-6.25.28-.86.52-1.73.68-2.61.22-1.21.35-2.6.13-3.88"/>
  <path class="cls-2" d="m74.49,46.15c0-.44-.39-.73-.81-.71-.42.01-.82.23-1.21.38-7.56,2.87-16.08,3.42-24.04,2.27-1.36-.2-2.74-.47-4.11-.68-.86-.13-1.7-.33-2.57-.39-.74-.06-1.65-.08-2.25.43-.79.68-.73,1.96-.29,2.81.54,1.02,1.47,1.78,2.45,2.36.95.56,2.08,1.16,3.2,1.09,3.04-.19,6.08-.49,9.1-.88,5.16-.67,10.56-1.3,15.41-3.3,1.58-.65,3.15-1.47,4.5-2.53.24-.18.6-.49.6-.85"/>
  <path class="cls-1" d="m52.82,43.56c0,1.64,1.33,2.97,2.97,2.97s2.97-1.33,2.97-2.97c0-.24-.05-.49-.16-.71-.26-.54-.54-.8-.51-1.45.04-.87-1.08-.88-1.68-.88-.66,0-1.36.09-1.95.39-.47.24-.88.6-1.17,1.05-.29.46-.46,1-.47,1.54v.07"/>
</svg>