<?xml version="1.0" encoding="UTF-8"?>
<svg id="_레이어_1" data-name="레이어 1" xmlns="http://www.w3.org/2000/svg" viewBox="0 0 113.39 113.39">
  <defs>
    <style>
      .cls-1 {
        fill: #286bb5;
      }

      .cls-1, .cls-2 {
        stroke-width: 0px;
      }

      .cls-2 {
        fill: #56b432;
      }
    </style>
  </defs>
  <path class="cls-2" d="m63.42,75.52l-16.26-10.58s-2.04-1.17-2.51-3.36c-.66-3.07,1.51-5.7,1.51-5.7l21.1,13.74c1.63,1.06,2.07,3.23,1.03,4.87-1.07,1.68-3.28,2.05-4.87,1.03"/>
  <path class="cls-1" d="m48.02,53.62s-2.49-1.5-2.49-4.98,2.49-4.95,2.49-4.95l8.89-5.82c1.63-1.06,3.81-.6,4.87,1.03,1.06,1.63.6,3.81-1.03,4.87l-7.49,4.88,12.76,8.31s2.3,1.32,2.75,3.54c.63,3.1-1.5,5.65-1.5,5.65l-19.24-12.53Z"/>
  <path class="cls-2" d="m64.75,45c-.83,0-1.43.26-2.01.64l-4.34,2.83,4.34,2.83c.59.38,1.2.64,2.01.64,1.91,0,3.47-1.55,3.47-3.47s-1.55-3.47-3.47-3.47"/>
  <path class="cls-1" d="m47.97,76.08c.83,0,1.43-.26,2.01-.64l4.34-2.83-4.34-2.83c-.59-.38-1.2-.64-2.01-.64-1.91,0-3.47,1.55-3.47,3.47s1.55,3.47,3.47,3.47"/>
</svg>