<svg width="24" height="24" viewBox="0 0 24 24" fill="none" xmlns="http://www.w3.org/2000/svg">
<path d="M16.703 15.8803L18.0727 17.25H4.92733L6.297 15.8803L6.51667 15.6607V15.35V10.5C6.51667 8.14742 8.14482 6.17658 10.3478 5.65481L10.925 5.51812V4.925V4.325C10.925 4.00588 11.1809 3.75 11.5 3.75C11.8191 3.75 12.075 4.00588 12.075 4.325V4.925V5.51812L12.6522 5.65481C14.8552 6.17658 16.4833 8.14742 16.4833 10.5V15.35V15.6607L16.703 15.8803ZM11.5 19.75C11.3094 19.75 11.1327 19.6916 10.9868 19.5917H12.0132C11.8673 19.6916 11.6906 19.75 11.5 19.75Z" stroke="black" stroke-width="1.5"/>
</svg>
